# Blender 4.2.1 LTS
# www.blender.org
mtllib treadmill.mtl
o Cube
v -53.361828 6.019151 -11.073859
v -53.361828 8.531572 -11.073859
v 67.769409 8.531572 11.073859
v -54.807190 6.299251 -11.073858
v -54.807190 6.299251 11.073858
v -54.807190 8.251472 11.073858
v -54.807190 8.251472 -11.073858
v -56.056110 6.781299 -11.073858
v -56.056110 6.781299 11.073858
v -56.056110 7.769424 11.073858
v -56.056110 7.769424 -11.073858
v -56.271351 7.090319 -11.073857
v -56.271351 7.090319 11.073857
v -56.271351 7.460404 11.073857
v -56.271351 7.460404 -11.073857
v 67.769409 6.019151 11.073859
v 67.769409 6.019151 -11.073859
v 67.769409 8.531572 -11.073859
v -53.361828 6.019151 11.073859
v -53.361828 8.531572 11.073859
v 69.214775 6.299251 -11.073858
v 69.214775 6.299251 11.073858
v 69.214775 8.251472 11.073858
v 69.214775 8.251472 -11.073858
v 70.463692 6.781299 -11.073858
v 70.463692 6.781299 11.073858
v 70.463692 7.769424 11.073858
v 70.463692 7.769424 -11.073858
v 70.678932 7.090319 -11.073857
v 70.678932 7.090319 11.073857
v 70.678932 7.460404 11.073857
v 70.678932 7.460404 -11.073857
v -53.361828 8.531572 0.000000
v 7.203792 8.531572 -11.073859
v 67.769409 8.531572 0.000000
v 7.203792 8.531572 11.073859
v 7.203792 8.531572 0.000000
vn -0.1903 0.9817 -0.0000
vn -0.2500 0.9682 -0.0000
vn -0.0000 -0.0000 -1.0000
vn 1.0000 -0.0000 -0.0000
vn -0.0000 -0.0000 1.0000
vn -0.0000 -1.0000 -0.0000
vn -0.0000 1.0000 -0.0000
vn -0.1903 -0.9817 -0.0000
vn -0.2500 -0.9682 -0.0000
vn -0.5199 0.8542 -0.0000
vn -0.9444 0.3289 -0.0000
vn -0.5199 -0.8542 -0.0000
vn -0.9444 -0.3289 -0.0000
vn 0.2500 0.9682 -0.0000
vn 0.1903 0.9817 -0.0000
vn -1.0000 -0.0000 -0.0000
vn 0.2500 -0.9682 -0.0000
vn 0.1903 -0.9817 -0.0000
vn 0.9444 0.3289 -0.0000
vn 0.5199 0.8542 -0.0000
vn 0.5199 -0.8542 -0.0000
vn 0.9444 -0.3289 -0.0000
vt 0.990234 0.251953
vt 0.990234 0.013672
vt 0.990234 0.490234
vt 0.625000 0.375000
vt 0.625000 0.500000
vt 0.375000 0.500000
vt 0.625000 0.625000
vt 0.625000 0.750000
vt 0.375000 0.750000
vt 0.245062 0.224997
vt 0.000000 0.224997
vt 0.000000 0.161722
vt 0.987026 0.014927
vt 0.509067 0.492886
vt 0.509067 0.014927
vt 0.988281 0.251953
vt 0.513672 0.251953
vt 0.988281 0.013672
vt 0.375000 0.250000
vt 0.625000 0.250000
vt 0.994538 0.009368
vt 0.521087 0.482819
vt 0.521087 0.009368
vt 0.186208 0.220011
vt 0.287864 0.187572
vt 0.186208 0.187572
vt 0.513672 0.484375
vt 0.998047 0.000000
vt 0.513672 0.000000
vt 0.287864 0.220011
vt 0.490123 0.161722
vt 0.490124 0.224997
vt 0.987026 0.492886
vt 0.988281 0.490234
vt 0.513672 0.490234
vt 0.513672 0.013672
vt 0.994538 0.482819
vt 0.998047 0.484375
s 1
usemtl Material.005
f 33/1/1 7/2/2 6/3/2
f 34/4/3 18/5/3 17/6/3
f 35/7/4 3/8/4 16/9/4
f 36/10/5 20/11/5 19/12/5
f 17/13/6 19/14/6 1/15/6
f 37/16/7 35/17/7 34/18/7
f 4/19/3 11/20/3 7/20/3
f 19/14/8 4/15/9 1/15/8
f 1/19/3 7/20/3 2/20/3
f 20/11/5 5/12/5 19/12/5
f 11/2/10 14/3/11 10/3/10
f 6/11/5 9/12/5 5/12/5
f 7/2/2 10/3/10 6/3/2
f 5/14/9 8/15/12 4/15/9
f 14/21/11 12/22/13 13/23/13
f 9/14/12 12/15/13 8/15/12
f 8/19/3 15/20/3 11/20/3
f 10/24/5 13/25/5 9/26/5
f 24/2/14 18/2/15 35/1/15
f 19/9/16 20/8/16 33/7/16
f 28/20/3 21/19/3 24/20/3
f 21/15/17 16/14/18 17/15/18
f 24/20/3 17/19/3 18/20/3
f 22/12/5 3/11/5 16/12/5
f 31/3/19 28/2/20 27/3/20
f 26/12/5 23/11/5 22/12/5
f 27/3/20 24/2/14 23/3/14
f 25/15/21 22/14/17 21/15/17
f 29/27/22 31/28/19 30/29/22
f 29/15/22 26/14/21 25/15/21
f 32/20/3 25/19/3 28/20/3
f 30/25/5 27/30/5 26/25/5
f 33/1/7 37/17/7 2/2/7
f 6/3/2 20/3/1 33/1/1
f 33/1/1 2/2/1 7/2/2
f 17/6/3 1/19/3 34/4/3
f 1/19/3 2/20/3 34/4/3
f 16/9/4 17/6/4 35/7/4
f 17/6/4 18/5/4 35/7/4
f 19/12/5 16/31/5 36/10/5
f 16/31/5 3/32/5 36/10/5
f 17/13/6 16/33/6 19/14/6
f 37/16/7 36/34/7 3/35/7
f 35/17/7 18/36/7 34/18/7
f 37/16/7 3/35/7 35/17/7
f 4/19/3 8/19/3 11/20/3
f 19/14/8 5/14/9 4/15/9
f 1/19/3 4/19/3 7/20/3
f 20/11/5 6/11/5 5/12/5
f 11/2/10 15/2/11 14/3/11
f 6/11/5 10/11/5 9/12/5
f 7/2/2 11/2/10 10/3/10
f 5/14/9 9/14/12 8/15/12
f 14/21/11 15/37/11 12/22/13
f 9/14/12 13/14/13 12/15/13
f 8/19/3 12/19/3 15/20/3
f 10/24/5 14/30/5 13/25/5
f 35/1/15 3/3/15 23/3/14
f 23/3/14 24/2/14 35/1/15
f 2/5/16 1/6/16 33/7/16
f 1/6/16 19/9/16 33/7/16
f 28/20/3 25/19/3 21/19/3
f 21/15/17 22/14/17 16/14/18
f 24/20/3 21/19/3 17/19/3
f 22/12/5 23/11/5 3/11/5
f 31/3/19 32/2/19 28/2/20
f 26/12/5 27/11/5 23/11/5
f 27/3/20 28/2/20 24/2/14
f 25/15/21 26/14/21 22/14/17
f 29/27/22 32/38/19 31/28/19
f 29/15/22 30/14/22 26/14/21
f 32/20/3 29/19/3 25/19/3
f 30/25/5 31/30/5 27/30/5
f 33/1/7 20/3/7 36/35/7
f 37/17/7 34/36/7 2/2/7
f 33/1/7 36/35/7 37/17/7
